<?xml version="1.0" encoding="UTF-8"?>
<svg id="Layer_1" xmlns="http://www.w3.org/2000/svg" version="1.1" viewBox="0 0 164 80">
  <!-- Generator: Adobe Illustrator 29.6.1, SVG Export Plug-In . SVG Version: 2.1.1 Build 9)  -->
  <defs>
    <style>
      .st0 {
        fill: #fff;
      }
    </style>
  </defs>
  <path class="st0" d="M33.1,62.5v-2.4c0-.3,0-.6-.5-.6h-.4s0,0,0,0,0,0,.2,0h2.6c.7,0,1.4.1,2,.5.5.4.8.9.8,1.5,0,1-.5,2-1.3,2.5.9,1.2,1.7,2.2,2.3,2.9.3.4.8.7,1.3.8h.4s.1,0,.1,0,0,0-.3,0h-.8c-.4,0-.8,0-1.2-.2-.6-.4-1.1-1-1.5-1.6-.5-.6-1-1.3-1.2-1.6,0,0,0,0-.2,0h-1.3q0,0,0,0v2.7c0,.5.1.6.4.6h.5q0,0,0,0t-.2,0h-2.4c-.1,0-.2,0-.2,0q0,0,0,0h.3c.2,0,.3-.3.3-.6s0-1.3,0-2.4v-2ZM34,63.4s0,.1,0,.2c.4.1.8.2,1.2.2.3,0,.6,0,.8-.2.5-.4.7-1.1.7-1.7,0-1.3-.8-2.2-1.9-2.2-.2,0-.5,0-.7,0,0,0,0,0,0,.2v3.7h0Z"/>
  <path class="st0" d="M12,59.1c2.2-.2,4.2,1.5,4.4,3.7v.4c.1,2.4-1.8,4.4-4.2,4.5h-.3c-2.3,0-4.2-1.7-4.3-4v-.4c0-2.4,1.9-4.3,4.3-4.3h.1M12.3,67.4c1,0,3-.6,3-3.8s-1.6-4.1-3.4-4.1-3.2,1.3-3.2,3.7,1.6,4.3,3.6,4.3"/>
  <path class="st0" d="M17.2,62.5v-2.4c0-.4-.1-.6-.5-.6h-.4s0,0,.2,0h3.9c.2,0,.3,0,.5,0h.2c0,.3,0,.5-.1.6v.7q0,.1,0,.2t0-.2c0-.2,0-.3-.1-.4-.2-.2-.4-.4-.8-.4h-1.7c0,0-.1,0-.1.1v3.1q0,0,0,0h1.9c.3,0,.4,0,.5-.2,0-.2,0-.1.1-.1s0,0,0,0,0,.3,0,.6,0,.7,0,.8,0,.2,0,.2,0,0,0,0c0-.1,0-.3,0-.4-.1-.2-.3-.4-.6-.4h-1.7c-.2,0,0,0,0,.1v1c0,.8,0,1.6,0,2.4,0,.3,0,.6.4.6h.6s0,0-.2,0h-2.4c-.1,0-.2,0-.2,0s0,0,0,0h.3c.2,0,.3-.3.3-.6,0-.3,0-1.3,0-2.4v-2.2Z"/>
  <path class="st0" d="M83.8,64.4v2.4c0,.5.1.6.4.6h.5q0,0,0,0t-.2,0h-2.4c-.1,0-.2,0-.2,0s0,0,0,0h.4c.2,0,.3-.3.3-.6,0-.8,0-1.6,0-2.4v-4.7h-1.7c-.7,0-1,0-1.1.4,0,.1-.2.2-.2.4,0,0,0,.1-.1.1s0,0,0-.1.2-1.1.2-1.2c0,0,0-.2.1-.2.2,0,.3.1.5.2h5c.4,0,.8,0,1.1-.1h0v1.4q0,.1,0,.1,0,0,0-.2h0c0-.4-.3-.7-1.3-.8h-1.3v4.9Z"/>
  <path class="st0" d="M88,62.5v-2.4c0-.4-.1-.6-.5-.6-.1,0-.2,0-.4,0h0s0,0,.2,0h4.4c0,.2,0,.3,0,.6v.7q0,.1,0,.1t0-.2c0-.1,0-.3,0-.4,0-.2-.2-.3-.8-.4h-1.5c-.1,0,0,0,0,.1v3.1q0,0,0,.1h1.8c.3,0,.4,0,.5-.2,0-.2.1-.2.2-.2s0,0,0,0v1.4c0,0,0,.2,0,.2s0,0,0,0c0-.1,0-.2,0-.4,0-.2-.1-.4-.6-.4s-1.4,0-1.6,0,0,0,0,0v2.9c0,.8.2.9,1.3.9.4,0,.7,0,1.1-.2.3-.1.4-.3.5-.8,0-.1,0-.2.1-.2s0,0,0,.2c0,.4,0,.7-.2,1.1,0,.3-.2.3-.6.3-1.7,0-2.4,0-2.8,0h-1.1c-.1,0-.2,0-.2,0s0,0,0,0h.3c.2,0,.3-.3.3-.6,0-.8,0-1.6,0-2.4l-.2-2Z"/>
  <path class="st0" d="M93.4,66.6c-.9-.9-1.4-2.1-1.3-3.3,0-1.2.5-2.3,1.3-3.1.9-.8,2.2-1.3,3.4-1.2.6,0,1.1,0,1.6.2.4,0,.8.1,1.1.2.1,0,.2,0,.2.1v1.8c0,.2,0,.2-.1.2s0,0,0-.2c0-.4-.2-.8-.4-1.2-.7-.4-1.4-.7-2.2-.6-.9,0-1.9.2-2.6.8-.7.8-1.1,1.9-1,2.9,0,2.2,1.7,4,3.9,4.1h.1c.7,0,1.4-.1,2-.6.2-.3.4-.6.4-1,0-.1,0-.2.1-.2s0,0,0,.2c0,.5-.2,1-.3,1.5q0,.2-.3.3c-.6.2-1.3.3-2,.2-1.3,0-2.6-.3-3.7-1.2"/>
  <path class="st0" d="M107.7,64.4v2.4c0,.5,0,.6.5.6h.5q0,0,0,0t-.2,0h-2.4c-.1,0-.2,0-.2,0h0c0,0,.4,0,.4,0,.2,0,.3-.3.3-.6,0-.3,0-1.3,0-2.4v-1.2h0c0,0-4.6,0-4.6,0h0v1.2c0,.8,0,1.6,0,2.4,0,.3.1.6.4.6h.5s0,0,0,0,0,0-.2,0h-2.4c-.1,0-.2,0-.2,0s0,0,0,0h.3c.2,0,.3-.3.3-.6,0-.8,0-1.6,0-2.4v-4.4c0-.4-.1-.6-.5-.6h-.4s0,0,.2,0h2.4c.1,0,.2,0,.2,0s0,0,0,0h-.3c-.3,0-.4.2-.4.6s0,.7,0,2.4v.2h4.7v-2.7c0-.4-.1-.6-.5-.6-.1,0-.3,0-.4,0h0s0,0,.2,0h2.3c.2,0,.2,0,.2,0s0,0,0,0h-.3c-.3,0-.4.2-.4.6v4.5Z"/>
  <path class="st0" d="M110.4,66.2c0,.9.2,1.2.4,1.3h.6c0,0,.1,0,.1,0s0,0-.2,0h-2.3c0,0-.2,0-.2,0s0,0,0,0c.2,0,.3,0,.4,0,.3,0,.4-.4.4-1.4v-6.4c0-.4,0-.6.1-.6s.3.2.4.4,1.8,2,3.5,3.9c1.1,1.2,2.3,2.5,2.6,2.9v-5.7c-.1-.7-.2-1-.6-1-.2,0-.3,0-.5,0h0,2.4c.1,0,.2,0,.2,0s0,0-.1,0h-.3c-.4,0-.4.3-.4,1v6.6c0,.7,0,.8,0,.8s-.2-.1-.8-.7c-.1-.1-1.7-1.8-2.9-3-1.2-1.3-2.6-2.8-2.9-3.2v5.2Z"/>
  <path class="st0" d="M121.8,59.1c2.2-.2,4.2,1.5,4.4,3.7v.5c0,2.4-1.8,4.5-4.2,4.6h-.2c-2.3,0-4.3-1.8-4.3-4.1v-.3c0-2.4,1.9-4.3,4.3-4.4,0,0,0,0,.1,0M122.1,67.4c1,0,3.1-.6,3.1-3.9s-1.6-4.1-3.4-4.1-3.3,1.2-3.3,3.7,1.6,4.3,3.6,4.3"/>
  <path class="st0" d="M127.8,64.4c0,1.6,0,2.4.2,2.5s.5.2,1.3.2,1.1,0,1.3-.3c.2-.2.2-.4.3-.7,0,0,0-.1,0-.1s0,0,0,.2c0,.4,0,.8-.2,1.1,0,.2-.1.3-.7.3-1.6,0-2.4,0-3,0h-1.1c-.1,0-.2,0-.2,0s0,0,.1,0h.3c.2,0,.3-.3.3-.6s0-1.3,0-2.4v-4.4c0-.4,0-.6-.5-.6h-.5s0,0,.2,0h2.4c.1,0,.2,0,.2,0s0,0,0,0h-.4c-.3,0-.4.2-.4.6,0,.4,0,.7,0,2.4v2Z"/>
  <path class="st0" d="M135.2,59.1c2.2-.2,4.2,1.5,4.4,3.7v.4c.1,2.4-1.8,4.5-4.2,4.6h-.3c-2.3,0-4.3-1.8-4.3-4.1v-.3c0-2.4,1.9-4.3,4.3-4.4,0,0,.1,0,.2,0M135.4,67.4c1,0,3.1-.6,3.1-3.9s-1.6-4.1-3.4-4.1-3.2,1.2-3.2,3.7c0,2.4,1.5,4.3,3.5,4.3"/>
  <path class="st0" d="M146.5,64.8c0-.9,0-1-.5-1.2h-.4s0,0,0,0c0,0,0,0,.2,0h2.4c.1,0,.2,0,.2,0s0,0,0,0h-.3c-.3,0-.4.3-.4.7s0,.7,0,1.2v1.3c0,.5,0,.6-.2.6-.7.3-1.6.5-2.4.5-1.3,0-2.6-.4-3.7-1.2-.8-.8-1.3-2-1.3-3.2,0-1.5.6-2.9,1.9-3.7.9-.5,1.9-.8,3-.7.6,0,1.2,0,1.7.2.3,0,.6,0,.9.1.1,0,.2,0,.2,0,0,0,0,.5,0,1.6,0,.2,0,.2,0,.2s0,0,0-.2c0-.3,0-.5-.2-.8-.7-.7-1.7-1-2.6-.9-1.7-.2-3.3,1-3.5,2.8,0,.3,0,.5,0,.8,0,1.2.4,2.3,1.2,3.1.8.8,1.8,1.2,2.9,1.2.4,0,.9,0,1.3-.2.2,0,.2-.2.2-.4v-2Z"/>
  <path class="st0" d="M151.4,64.8c0-.4,0-.8-.2-1.2,0-.2-1.6-2.6-2-3.2-.2-.3-.5-.6-.8-.8-.2,0-.3-.2-.5-.2h0s-.2,0,0,0h2.2-.2c0,.2-.1.2-.1.3,0,.2,0,.3.1.4.2.3,1.8,3.2,2,3.5.2-.5,1.6-2.9,1.9-3.3.1-.2.2-.4.2-.6,0-.2,0-.3-.2-.3-.2,0-.2,0-.2-.1s0,0,.2,0h2s0,0-.2,0-.4,0-.5.2c-.2.2-.4.4-.6.6-.8,1.2-1.5,2.3-2.1,3.5-.1.4-.2.7-.2,1.1v2.1c0,.5.1.6.5.6h.5q0,0,0,0t-.2,0h-2.4c-.1,0-.2,0-.2,0s0,0,0,0h.4c.2,0,.3-.3.4-.6s0-1,0-1.1l-.2-1Z"/>
  <path class="st0" d="M25.6,66.6c-.9-.8-1.4-2-1.3-3.3,0-1.1.4-2.2,1.2-3,.9-.8,2.1-1.3,3.4-1.2.6,0,1.1,0,1.6.2.4,0,.8.1,1.1.2.1,0,.2,0,.2.1v1.8c0,.2,0,.2,0,.2s0,0,0-.2c0-.4-.2-.8-.5-1.2-.6-.4-1.4-.6-2.2-.6-.9,0-1.8.2-2.6.8-.7.8-1.1,1.8-1,2.9,0,2.2,1.7,4,3.9,4.1h0c.7,0,1.4-.1,1.9-.6.2-.3.3-.6.4-.9,0-.1,0-.2.1-.2s0,0,0,.2c0,.5-.1,1-.2,1.4,0,.2,0,.2-.3.3-.6.2-1.3.3-2,.2-1.3,0-2.6-.3-3.7-1.2"/>
  <path class="st0" d="M41.7,62.5v-2.4c0-.3-.1-.6-.5-.6h-.4q0,0,.2,0h4.4c0,.3,0,.5,0,.6v.8c0,.2,0,.1,0,.1s0,0,0-.2c0-.1,0-.3,0-.4,0-.2-.2-.3-.8-.4h-1.5c-.2,0,0,0,0,.1v3.1h0c0,.1,1.5.1,1.8.1s.4,0,.5-.2.1-.2.2-.2,0,0,0,0c0,.2,0,.4,0,.6v.7c0,0,0,.2,0,.2s0,0,0-.1v-.4c0-.2-.2-.4-.6-.4-.4,0-1.4,0-1.6,0s0,0,0,0v2.9c0,.8.2.9,1.3.9s.7,0,1.1-.1c.3-.1.4-.4.5-.8,0-.1,0-.2.1-.2s0,0,0,.2c0,.4,0,.7-.1,1.1,0,.3-.2.3-.6.3h-3.8c-.1,0-.2,0-.2,0s0,0,0,0h.3c.2,0,.3-.3.3-.6s0-1.3,0-2.4v-2.4Z"/>
  <path class="st0" d="M49.8,59.5c.1-.4.2-.4.2-.4s.1,0,.2.4,1.9,5,2.6,6.7c.4,1,.7,1.2,1,1.2.2,0,.3,0,.4,0h.1s0,0-.2,0h-1.8c-.2,0-.3,0-.3,0s0,0,0,0,.1-.1,0-.3l-.9-2.7h-2.6s0,0,0,0l-.7,2c0,.2-.1.5-.2.7,0,.2.2.3.4.3h.2s0,0-.2,0h-2.1c-.1,0-.2,0-.2,0s0,0,.1,0h.3c.5,0,.7-.5.9-1l2.6-6.9ZM51,64h0c0,0-1-3.1-1-3.1,0-.2-.1-.2-.2,0l-1,3h0c0,0,2.2,0,2.2,0Z"/>
  <path class="st0" d="M56.5,64.4c0,.8,0,1.6.1,2.4,0,.3.1.6.4.6h.6s0,0-.2,0h-2.4c-.1,0-.2,0-.2,0s0,0,0,0h.3c.2,0,.3-.3.3-.6,0-.8,0-1.6,0-2.4v-4.7h-1.6c-.7,0-1,0-1.2.4,0,.1-.1.2-.2.3q0,.1-.1.1c-.1,0,0,0,0,0s0-1,0-1.2,0-.2.1-.2.2.1.5.2h5c.4,0,.8,0,1.1-.1v1.4q0,.1,0,.1t0-.2h0c0-.4-.3-.7-1.3-.7h-1.4v4.7Z"/>
  <path class="st0" d="M61.6,64.4c0,.8,0,1.6,0,2.4,0,.3,0,.6.4.6h.6s0,0-.2,0h-2.4c-.1,0-.2,0-.2,0s0,0,0,0h.4c.2,0,.3-.3.3-.6s0-1.3,0-2.4v-4.3c0-.3-.1-.6-.4-.6h-.4q0,0,.2,0h2.2c.3,0,.2,0,.2,0s0,0,0,0h-.3c-.3,0-.4.2-.4.6v4.3Z"/>
  <path class="st0" d="M67.2,66.3c.6-1.5,2.1-5.3,2.4-6.1,0-.2,0-.3.1-.4,0-.1,0-.2-.2-.2h-.6s0,0,.2,0h2c.1,0,.2,0,.2,0s0,0-.1,0c-.2,0-.4,0-.5.1-.3.3-.5.6-.6,1-.1.3-.7,1.7-1.2,3-.7,1.6-1.2,2.8-1.4,3.3s-.4.8-.5.8-.2-.2-.4-.7l-2.6-6.8c-.2-.6-.4-.8-.8-.9h-.4s0,0,0,0,.1,0,.3,0h2.4c.2,0,.3,0,.3,0s0,0-.1,0c-.1,0-.3,0-.4,0,0,0-.2.1-.2.2,0,.3.2.6.3,1l2,5.6Z"/>
  <path class="st0" d="M72.6,62.5v-2.4c0-.3-.1-.6-.5-.6h-.5s0,0,.2,0h4.4c0,0,0,0,0,.1,0,.2,0,.4,0,.5v.7q0,.1,0,.2t0-.2c0-.1,0-.3,0-.4,0-.2-.2-.3-.8-.4h-1.5c-.2,0,0,0,0,.1v3.1h0c0,.1,1.8.1,1.8.1.2,0,.4,0,.5-.2s.1-.2.2-.2,0,0,0,0,0,.3,0,.6c0,.4,0,.6,0,.7s0,.2,0,.2,0,0,0,0v-.4c0-.2-.2-.4-.6-.4s-1.3,0-1.6,0h0v3c0,.8.2.9,1.3.9s.7,0,1-.1c.3-.1.4-.4.5-.8,0-.1,0-.2,0-.2s0,0,0,.2-.1.8-.2,1.1-.2.3-.6.3h-3.8c-.1,0-.2,0-.2,0s0,0,0,0h.3c.2,0,.3-.3.3-.6s0-1.3,0-2.4v-2.5Z"/>
  <path class="st0" d="M31.1,47.9c0,2.1.3,2.7,1,2.9.4,0,.8.1,1.2.2.1,0,.2,0,.2.2s-.2.2-.5.2c-1.4,0-2.4,0-2.6,0s-1.3,0-2.4,0-.4,0-.4-.2,0-.2.2-.2c.4,0,.7,0,1-.2.6-.2.8-.9.8-3.2v-14.6c0-1,0-1.3.3-1.3s.6.6.9.8c.2.2,4.2,4.5,8,8.7,2.5,2.6,5.2,5.8,6.1,6.6l-.3-12.8c0-1.6-.2-2.2-1-2.4-.4,0-.8-.1-1.2-.1s-.2,0-.2-.2.2-.2.5-.2c1.2,0,2.4,0,2.6,0s1.1,0,2.2,0,.4,0,.4.2,0,.2-.3.2-.4,0-.6,0c-.8.2-.9.8-.9,2.3v14.9c0,1.7,0,1.8-.2,1.8s-.5-.3-1.8-1.6c-.3-.2-3.9-4-6.6-6.9-2.9-3.1-5.8-6.4-6.6-7.3l.4,12.2Z"/>
  <path class="st0" d="M145.7,44.8c0-1-.2-1.9-.6-2.7-.2-.4-3.6-6.1-4.5-7.4-.5-.7-1.1-1.3-1.8-1.8-.3-.2-.7-.4-1.1-.4-.1,0-.2,0-.2-.2s0-.2.3-.2h2.6c.2,0,1.2,0,2.2,0s.3,0,.3.2c0,.1-.2.1-.4.2-.2,0-.3.2-.3.5,0,.4.2.7.3,1,.4.8,4.3,7.4,4.7,8.1.5-1.1,3.7-6.7,4.2-7.6.3-.4.4-.8.4-1.3s0-.7-.4-.7c-.3,0-.4-.1-.4-.2s.2-.2.4-.2c.7,0,1.5,0,1.7,0h2.5c.2,0,.3,0,.3,0s-.1.2-.3.2c-.4,0-.8.2-1.2.4-.5.4-1,.8-1.3,1.3-1.8,2.6-3.4,5.4-4.9,8.2-.3.8-.4,1.7-.4,2.6v2.2c0,.4,0,1.5,0,2.6,0,.7.3,1.3,1.1,1.4.4,0,.8,0,1.2.1.2,0,.2,0,.2.2s-.2.2-.4.2c-1.3,0-3,0-3.2,0s-1.8,0-2.5,0-.4,0-.4-.2,0-.2.2-.2.5,0,.8-.1c.5-.1.8-.7.8-1.4,0-1.1,0-2.2,0-2.6v-2.3Z"/>
  <path class="st0" d="M11.1,39.5v-5.5c0-.8-.2-1.3-1.1-1.5-.3,0-.6,0-.9,0s-.2,0-.2-.1.1-.2.4-.2c1.2,0,2.6,0,2.9,0s1.8,0,2.6,0,.4,0,.4.2-.1.1-.2.1c-.2,0-.4,0-.6,0-.7.1-.9.6-.9,1.5s0,1.5,0,5.5v3.6c0,3.7.8,5.3,1.9,6.3,1,1,2.4,1.5,3.8,1.4,1.5,0,3-.7,4-1.9,1.1-1.5,1.4-3.6,1.4-6.3v-8.7c0-.8-.2-1.3-1.1-1.5-.3,0-.6,0-.9,0s-.2,0-.2-.1.1-.2.4-.2c1.2,0,2.6,0,2.6,0s1.3,0,2.2,0,.4,0,.4.2-.1.1-.2.1c-.2,0-.4,0-.6,0-.7.1-.9.6-1,1.5,0,.9,0,1.5,0,5.5v2.7c0,2.7-.3,5.9-2.4,7.6-1.4,1.3-3.3,2-5.2,1.9-1.9,0-3.8-.6-5.2-1.8-1.2-1.2-2.2-3-2.2-6.7v-3.7Z"/>
  <path class="st0" d="M52.9,44c0,2.5,0,4.5.1,5.6,0,.8.2,1.3,1,1.4.4,0,.9,0,1.2,0s.2,0,.2.2-.1.2-.4.2c-1.4,0-3,0-3.1,0s-1.8,0-2.5,0-.4,0-.4-.2,0-.2.2-.2.5,0,.8,0c.5-.1.6-.7.8-1.4.1-1.1.1-3.1.1-5.6v-10c0-.8-.3-1.3-.9-1.4-.3,0-.5-.1-.8-.1s-.2,0-.2-.1.1-.2.4-.2c.8,0,2.4,0,2.6,0s1.7,0,2.5,0,.4,0,.4.2-.1.1-.2.1c-.2,0-.4,0-.6,0-.7.1-.9.6-1,1.5,0,.9,0,1.5,0,5.5v4.5Z"/>
  <path class="st0" d="M65.8,48.3c1.4-3.5,4.9-12.4,5.4-14.2.1-.3.2-.6.2-1s-.1-.5-.3-.6c-.3,0-.6-.1-1-.1s-.3,0-.3-.1.2-.2.6-.2c1,0,2.2,0,2.5,0s1.2,0,2,0,.4,0,.4.2-.1.2-.3.2c-.4,0-.8,0-1.2.3-.3.2-.7.7-1.4,2.4-.3.7-1.6,3.8-2.8,6.9-1.6,3.7-2.6,6.5-3.3,7.8-.7,1.5-.8,2-1.1,2s-.4-.4-.9-1.6l-6.2-15.7c-.6-1.4-1-1.7-1.8-2-.3,0-.6-.1-1-.1s-.2,0-.2-.2.3-.2.7-.2c1.2,0,2.6,0,3,0s1.4,0,2.4,0,.7,0,.7.2,0,.2-.2.2c-.3,0-.6,0-1,.1-.2,0-.3.3-.3.5.2.7.4,1.4.7,2.1l4.8,13.1Z"/>
  <path class="st0" d="M77.9,39.5c0-4,0-4.7,0-5.5s-.2-1.3-1.1-1.5c-.3,0-.6,0-.9,0s-.2,0-.2-.1.1-.2.4-.2c1.2,0,2.8,0,2.9,0h5.8c.4,0,.7,0,1.1-.1.1,0,.2-.1.4-.1s.1,0,.1.2-.1.5-.2,1.2c0,.2,0,1.3-.1,1.7,0,.4,0,.3-.2.3s-.2-.1-.2-.3c0-.3,0-.6-.2-.9-.2-.4-.4-.7-1.8-.9-.4,0-3.2,0-3.5,0s-.2,0-.2.3v7.1c0,.2,0,.2.2.2h4c.6,0,1-.1,1.2-.4.2-.2.3-.3.4-.3q.1,0,.1.2c0,.2-.1.6-.2,1.4,0,.5,0,1.5,0,1.7s0,.5-.2.5-.2-.1-.2-.2c0-.3,0-.6-.1-.8,0-.4-.3-.8-1.3-.9-.7,0-3.2-.1-3.6-.1s-.2,0-.2.2v6.6c0,1.8.5,2.1,3,2.1.8,0,1.7,0,2.5-.3.6-.3,1-.8,1.2-1.8,0-.3,0-.4.2-.4s.2.2.2.4c0,.8-.2,1.7-.3,2.5-.2.7-.4.7-1.3.7-3.8,0-5.6-.2-6.3-.2s-1.7,0-2.5,0-.4,0-.4-.2,0-.2.2-.2.5,0,.8,0c.5-.1.6-.7.8-1.4.1-1.1.1-3.1.1-5.6v-4.7Z"/>
  <path class="st0" d="M104.5,51.1c-.4-.2-.4-.3-.4-1,0-1.3.1-2.3.1-2.6s0-.4.2-.4.2,0,.2.3c0,.3,0,.6,0,1,.7,2,2.8,3,4.8,2.4,1.4-.5,2.4-1.7,2.6-3.2,0-1.8-.8-2.8-2.9-4.6l-1.2-1c-2.6-2.2-3.3-3.8-3.3-5.6,0-2.7,2-4.6,5.3-4.6s1.6,0,2.4.2c.3,0,.6.1.9.1s.3,0,.3.2-.1,1-.1,2.6,0,.6-.2.6-.2-.1-.2-.4c0-.4-.2-.9-.3-1.3-.2-.3-.8-1.3-3.2-1.3-1.6-.2-3,1-3.2,2.6v.4c0,1.5.7,2.3,3.1,4.3l.7.6c3,2.4,3.7,4,3.7,6s-.8,3.2-2.2,4.2c-1.2.8-2.5,1.1-3.8,1.1-1.2,0-2.4-.1-3.4-.6"/>
  <path class="st0" d="M119.2,44c0,2.5,0,4.5.1,5.6,0,.8.2,1.3,1,1.4.4,0,.9,0,1.2,0s.2,0,.2.2-.1.2-.4.2c-1.4,0-3,0-3.1,0s-1.7,0-2.5,0-.4,0-.4-.2,0-.2.2-.2.5,0,.8,0c.5-.1.6-.7.8-1.4.1-1.1.1-3.1.1-5.6v-10c0-.8-.3-1.3-.9-1.4-.3,0-.5-.1-.8-.1s-.2,0-.2-.1.1-.2.4-.2c.8,0,2.4,0,2.6,0s1.7,0,2.5,0,.4,0,.4.2,0,.1-.2.1c-.2,0-.4,0-.6,0-.7.1-.9.6-1,1.5s0,1.5,0,5.5v4.5Z"/>
  <path class="st0" d="M130.4,44c0,2.5,0,4.5.1,5.6,0,.8.2,1.3,1,1.4.4,0,.9,0,1.2,0s.2,0,.2.2-.1.2-.4.2c-1.4,0-3,0-3.1,0s-1.8,0-2.5,0-.4,0-.4-.2,0-.2.2-.2.5,0,.8,0c.5-.1.6-.7.8-1.4.1-1.1.1-3.1.1-5.6v-10.8h-3.8c-1.6,0-2.2.2-2.6.8-.2.2-.3.5-.4.8,0,.2-.2.2-.2.2-.1,0-.1,0-.1-.2s.5-2.5.6-2.6c0-.2.2-.5.3-.5.4.2.7.2,1.1.3.7,0,1.7.1,2,.1h9.6c.8,0,1.7,0,2.6-.2.1,0,.1.1.1.3,0,.8,0,2.5,0,2.8s0,.4-.2.4-.2,0-.2-.4v-.3c-.1-.8-.7-1.3-3.1-1.4h-3.2l-.2,10.7Z"/>
  <path class="st0" d="M89.9,39.5v-5.5c0-.8-.2-1.3-1.1-1.5-.3,0-.6,0-.9,0s-.2,0-.2-.2.1-.2.4-.2c1.2,0,2.8,0,2.8,0,.1,0,2.2,0,3,0,1.6-.1,3.2.3,4.6,1.1,1.1.8,1.7,2.1,1.8,3.5,0,1.9-.8,3.8-3.1,5.9.9,1.2,4.1,5.6,4.1,5.6,3.2,4.2,6.8,7.6,12,7.7,2.2,0,2.4-.8,2.9-.6s-1.4,1.1-2.8,1.3c-.8.1-6.9,1.6-13.7-7.6,0,0-3.7-5.1-4.2-5.7,0-.1-.2-.2-.3-.2h-3.1c-.1,0-.2,0-.2.2v.6c0,2.5,0,4.5.1,5.5,0,.8.2,1.3,1,1.4.4,0,.8,0,1.2,0s.2,0,.2.2-.1.2-.4.2c-1.4,0-3,0-3.1,0s-1.6,0-2.4,0-.4,0-.4-.2,0-.2.2-.2.5,0,.8,0c.5-.1.6-.7.8-1.4.1-1.1.1-3.1.1-5.5v-4.4h0ZM91.9,41.8c0,.1,0,.2.2.3.8.3,1.8.4,2.6.4.7,0,1.4-.1,1.9-.5,1.1-1,1.7-2.5,1.6-4,0-3.1-1.7-5.1-4.4-5.1s-1.2,0-1.7.2c-.1,0-.2.2-.2.3v8.4Z"/>
  <rect class="st0" x="8.5" y="55.4" width="95.7" height=".4"/>
  <rect class="st0" x="118.9" y="55.4" width="36.9" height=".4"/>
  <path class="st0" d="M125.9,25.8c0,1.8.3,2.4.8,2.5.4,0,.7.1,1.1.1s.2,0,.2.1-.1.2-.4.2c-1.2,0-2.1,0-2.3,0s-1.1,0-2.1,0-.4,0-.4-.2,0-.1.2-.1c.3,0,.6,0,.9-.1.6-.2.7-.8.7-2.7v-12.5c0-.8,0-1.1.2-1.1s.5.5.8.7c.2.2,3.6,3.9,6.9,7.5,2.2,2.3,4.5,4.9,5.2,5.7l-.2-11c0-1.4-.2-1.9-.8-2.1-.4,0-.7-.1-1.1-.1s-.2,0-.2-.2.2-.2.4-.2h4.1c.2,0,.4,0,.4.2s0,.2-.2.2-.4,0-.5,0c-.7.2-.8.6-.8,1.9v12.7c0,1.4,0,1.6-.2,1.6s-.4-.2-1.6-1.4c-.2-.2-3.4-3.4-5.6-5.9-2.5-2.7-5-5.5-5.6-6.2l.2,10.5Z"/>
  <path class="st0" d="M12.7,22.5c0,3.1,0,4.6.5,4.9.4.4.9.5,2.6.5s2.1,0,2.6-.6c.3-.4.5-.8.6-1.3,0-.2,0-.3.2-.3s.1,0,.1.3c0,.7-.2,1.5-.3,2.2-.2.5-.2.6-1.3.6-3.1,0-4.6-.1-5.8-.1s-1.5,0-2.1,0-.4,0-.4-.2,0-.1.2-.1.4,0,.6,0c.4,0,.6-.6.6-1.2.1-.9.1-2.6.1-4.7v-8.5c0-.7-.2-1.1-.9-1.2-.2,0-.5,0-.8,0s-.2,0-.2-.1.1-.2.4-.2h4.8c.2,0,.4,0,.4.2s0,.1-.2.1c-.2,0-.5,0-.7,0-.6.1-.8.5-.8,1.2,0,.8,0,1.3,0,4.7l-.2,3.7Z"/>
  <path class="st0" d="M23.3,22.4c0,2.1,0,3.8.1,4.7,0,.6.2,1.1.8,1.2.3,0,.8,0,1,0s.2,0,.2.1c0,0-.1.2-.4.2-1.2,0-2.6,0-2.6,0-.1,0-1.5,0-2.1,0s-.3,0-.3-.2,0-.1.2-.1.4,0,.6,0c.4,0,.6-.6.6-1.2.1-.9.1-2.6.1-4.7v-8.5c0-.7-.2-1.1-.7-1.2-.2,0-.4,0-.7,0s-.2,0-.2-.1,0-.2.3-.2h4.3c.2,0,.4,0,.4.2s0,.1-.2.1c-.2,0-.4,0-.5,0-.6.1-.8.5-.8,1.2,0,.8,0,1.3,0,4.7l-.2,3.8Z"/>
  <path class="st0" d="M45.1,25.9c0,.8.2,2,1.2,2.3.4.1.9.2,1.3.2s.2,0,.2.1-.2.2-.5.2c-.5,0-2.8,0-3.6-.1-.5,0-.6-.1-.6-.2s0-.1.2-.1.1-.4,0-.8l-1-11.2h0l-5.3,11.3c-.4,1-.5,1.2-.7,1.2s-.2-.2-.7-1c-.6-1.1-2.4-4.8-2.5-5-.1-.2-2.6-5.6-2.9-6.2h0l-.8,10v1.1c0,.3.2.6.6.7.3,0,.6.1.8.1s.2,0,.2.1-.1.2-.4.2c-.8,0-1.8,0-2,0s-1.2,0-1.8,0-.4,0-.4-.2,0-.1.2-.1c.2,0,.4,0,.6,0,.7-.1.8-1,.9-1.8l1.6-14.2c0-.2.1-.4.2-.4s.2,0,.3.3l6.6,13.6,6.4-13.6c0-.2.2-.4.3-.4s.2.2.3.6l1.4,13.3Z"/>
  <path class="st0" d="M69.1,12c4.9,0,8.5,3.1,8.5,8.1.2,4.7-3.4,8.7-8.2,8.9h-.5c-6,0-8.4-4.6-8.4-8.5,0-4.6,3.7-8.4,8.3-8.5h.2M69.6,28.2c2,0,6-1.2,6-7.5s-3.2-8-6.6-8-6.3,2.4-6.3,7.2c0,5.1,3,8.3,7,8.3"/>
  <path class="st0" d="M108.7,25.7h0c.6-2,2.6-8.3,3.3-11.1.2-.4.3-.9.3-1.4,0-.4-.2-.6-1.2-.6s-.2,0-.2-.2.1-.2.4-.2h4c.2,0,.3,0,.3.1s0,.2-.2.2-.5,0-.8.1c-.6.2-1,1.2-1.4,2.4-1,2.7-3.1,9.6-4,12.1-.6,1.6-.7,1.9-.9,1.9s-.4-.3-.7-1.2l-4.2-12.1h0c-.8,2.1-3.8,10-4.5,12.1-.3.9-.5,1.2-.7,1.2s-.3-.2-.8-1.7l-4-12.9c-.4-1.1-.6-1.5-1.2-1.7-.3,0-.6-.1-1-.1s-.2,0-.2-.2.1-.2.4-.2h4.8c.3,0,.4,0,.4.2s-.1.2-.2.2c-.3,0-.6,0-.8.1-.2.1-.3.3-.3.5,0,.7.2,1.3.4,2,.3,1.4,2.6,9.4,2.9,10.5h0l4.6-12.4c.3-.9.4-1,.5-1s.3.3.6,1l4.3,12.4Z"/>
  <path class="st0" d="M119.6,22.4c0,2.1,0,3.8,0,4.7,0,.6.2,1.1.8,1.2.3,0,.8,0,1,0s.2,0,.2.2-.1.2-.4.2c-1.2,0-2.6,0-2.6,0-.1,0-1.5,0-2.1,0s-.4,0-.4-.2,0-.2.2-.2.4,0,.6,0c.4,0,.5-.6.6-1.2,0-.9,0-2.6,0-4.7v-8.5c0-.7-.3-1.1-.7-1.2-.2,0-.4,0-.7,0s-.2,0-.2-.1.1-.2.4-.2h4.3c.2,0,.4,0,.4.2s0,.1-.2.1c-.2,0-.4,0-.5,0-.6.1-.8.5-.8,1.2s0,1.3,0,4.7v3.8Z"/>
  <path class="st0" d="M153,23.2c0-1.8-.1-2-1-2.3-.2,0-.5,0-.7,0s-.2,0-.2-.1.1-.2.3-.2h4.6c.2,0,.4,0,.4.2s0,.1-.2.1-.4,0-.5,0c-.6.1-.8.5-.8,1.3,0,.8,0,1.3,0,2.3v2.4c0,1,0,1-.3,1.2-1.4.7-3,1-4.6,1-2.6.1-5.1-.7-7.1-2.3-1.7-1.6-2.6-3.9-2.6-6.2-.1-2.8,1.2-5.5,3.6-7.1,1.8-1,3.8-1.4,5.8-1.3,1.1,0,2.2.2,3.3.4.6.1,1.2.2,1.8.2s.3.1.3.2c-.1,1-.2,2-.2,3.1s0,.5-.2.4c-.2,0-.1-.1-.2-.3,0-.5-.2-1-.5-1.4-.6-.8-2.3-1.8-5.1-1.8-1.7,0-3.3.4-4.6,1.4-1.5,1.4-2.3,3.5-2.2,5.5,0,2.2.8,4.4,2.3,6,1.5,1.5,3.5,2.4,5.7,2.4.8,0,1.7-.1,2.5-.5.3-.2.4-.4.4-.8v-3.7Z"/>
  <path class="st0" d="M49.8,18.6v-4.7c0-.7-.2-1.1-.9-1.2-.2,0-.5,0-.7,0s-.2,0-.2-.1,0-.2.3-.2h4.5c.2,0,.3,0,.3.2s0,.1-.2.1c-.2,0-.4,0-.5,0-.6.1-.8.5-.8,1.2,0,.8,0,1.3,0,4.7v1.3h0c.4-.4,4.3-4.4,5.1-5.3.6-.6,1.2-1.2,1.2-1.6s-.1-.4-.3-.4-.2,0-.2-.2.1-.1.3-.1h3.7c.2,0,.3,0,.3.1s0,.2-.2.2c-.4,0-.8.1-1.2.3-.9.5-1.7,1.1-2.4,1.9-.6.5-4.3,4.2-4.8,4.8.6.6,5.1,5.3,6,6.1.9,1,2,1.9,3.2,2.5.4.2.9.3,1.3.3s.3,0,.3.1-.1.2-.5.2h-2.6c-1-.1-2-.6-2.6-1.3-1-.8-5.6-5.8-6.6-7.1h-.1v2.2c0,2.1,0,3.8.1,4.7,0,.6.2,1.1.8,1.2.3,0,.6,0,.8,0s.2,0,.2.1-.1.2-.4.2h-4.6c-.2,0-.4,0-.4-.2s0-.1.2-.1.4,0,.6,0c.4,0,.5-.6.6-1.2.1-.9.1-2.6.1-4.7v-3.9h0Z"/>
  <path class="st0" d="M79.1,18.6v-4.7c0-.7-.2-1.1-1-1.2-.2,0-.5,0-.7,0s-.2,0-.2-.1.1-.2.4-.2h4.5c.2,0,.4,0,.4.2s0,.1-.2.1c-.2,0-.4,0-.6,0-.6.1-.8.5-.8,1.2,0,.8,0,1.3,0,4.7v1.3h0c.4-.4,4.3-4.4,5-5.3.6-.6,1.2-1.2,1.2-1.6s-.1-.4-.3-.4-.2,0-.2-.2.1-.1.3-.1h3.7c.2,0,.3,0,.3.1s0,.2-.2.2c-.4,0-.8.1-1.2.3-.9.4-1.8,1.1-2.5,1.9-.6.5-4.3,4.2-4.8,4.8.6.6,5.1,5.3,6,6.1,1.8,1.7,2.2,2.1,3.2,2.5.4.2.9.3,1.3.3s.3,0,.3.1-.1.2-.5.2h-2.6c-1-.1-2-.6-2.6-1.3-1-.8-5.6-5.8-6.6-7.1h-.1v2.2c0,2.1,0,3.8.1,4.7,0,.6.2,1.1.8,1.2.3,0,.6,0,.8,0s.2,0,.2.1-.1.2-.4.2h-4.6c-.2,0-.3,0-.3-.2s0-.1.2-.1.4,0,.6,0c.4,0,.6-.6.6-1.2.1-.9.1-2.6.1-4.7v-3.9Z"/>
</svg>